<?xml version="1.0" standalone="no"?>
<!DOCTYPE svg PUBLIC "-//W3C//DTD SVG 20010904//EN"
 "http://www.w3.org/TR/2001/REC-SVG-20010904/DTD/svg10.dtd">
<svg version="1.0" xmlns="http://www.w3.org/2000/svg"
 width="496.000000pt" height="95.000000pt" viewBox="0 0 496.000000 95.000000"
 preserveAspectRatio="xMidYMid meet">

<g transform="translate(0.000000,95.000000) scale(0.100000,-0.100000)"
fill="#000000" stroke="none">
<path d="M365 776 c-108 -122 -185 -239 -185 -281 0 -29 15 -14 44 45 26 55
78 124 184 249 66 77 25 64 -43 -13z"/>
<path d="M455 806 c-6 -8 -47 -57 -91 -110 -45 -53 -98 -128 -118 -165 -39
-75 -37 -81 25 -81 24 0 32 7 46 37 38 80 105 81 205 5 126 -96 164 -228 87
-310 -27 -29 -14 -28 26 2 118 91 64 257 -123 381 -46 30 -72 64 -72 94 0 10
16 42 36 71 34 49 35 53 18 71 -20 23 -26 23 -39 5z"/>
<path d="M495 723 c-43 -64 -36 -84 55 -153 90 -69 145 -134 162 -194 17 -60
25 -63 32 -12 10 63 -13 135 -67 217 -49 75 -135 179 -148 179 -4 0 -20 -17
-34 -37z"/>
<path d="M3720 455 l0 -135 30 0 29 0 3 87 3 86 65 -86 c47 -63 71 -86 88 -87
22 0 22 2 22 135 l0 135 -25 0 c-24 0 -24 -2 -27 -87 l-3 -87 -65 86 c-54 72
-70 87 -92 88 l-28 0 0 -135z"/>
<path d="M4313 573 c-4 -10 -30 -71 -59 -135 l-52 -118 29 0 c22 0 32 7 41 25
10 23 16 25 78 25 62 0 68 -2 78 -25 9 -18 19 -25 41 -25 l29 0 -58 133 c-55
126 -59 132 -89 135 -23 2 -33 -2 -38 -15z m61 -96 c9 -23 16 -46 16 -50 0 -4
-18 -7 -40 -7 -22 0 -40 3 -40 7 0 14 35 93 41 93 4 0 14 -19 23 -43z"/>
<path d="M4520 461 c0 -108 3 -130 16 -135 9 -3 56 -6 105 -6 88 0 89 0 89 25
0 24 -2 25 -75 25 l-75 0 0 110 0 110 -30 0 -30 0 0 -129z"/>
<path d="M2392 452 c-34 -70 -62 -130 -62 -134 0 -5 14 -8 30 -8 23 0 33 6 42
25 11 24 16 25 88 25 72 0 77 -1 88 -25 9 -20 19 -25 47 -25 l35 0 -67 135
-68 135 -35 0 c-35 -1 -35 -2 -98 -128z m126 13 c12 -25 22 -48 22 -50 0 -3
-22 -5 -49 -5 l-49 0 21 50 c11 28 24 50 27 50 3 0 16 -20 28 -45z"/>
<path d="M2700 445 l0 -135 30 0 30 0 0 93 1 92 48 -54 47 -54 45 52 c24 28
47 51 52 51 4 0 7 -40 7 -90 l0 -90 30 0 30 0 0 135 0 135 -34 0 c-29 0 -42
-8 -81 -52 l-46 -53 -47 53 c-38 42 -53 52 -79 52 l-33 0 0 -135z"/>
<path d="M3070 446 l0 -136 63 0 c102 0 132 8 151 41 18 31 15 61 -10 90 -13
14 -12 18 1 29 20 17 19 53 -4 81 -16 20 -29 23 -110 27 l-91 4 0 -136z m168
60 c5 -25 -14 -36 -65 -36 -41 0 -43 1 -43 31 l0 30 52 -3 c42 -2 54 -7 56
-22z m-4 -92 c32 -32 9 -54 -56 -54 l-48 0 0 35 c0 35 0 35 44 35 27 0 51 -6
60 -16z"/>
<path d="M3340 445 l0 -135 30 0 30 0 0 135 0 135 -30 0 -30 0 0 -135z"/>
<path d="M3477 548 c-8 -45 -8 -174 -1 -204 6 -23 9 -24 105 -24 99 0 99 0 99
25 0 24 -2 25 -75 25 l-75 0 0 30 0 30 65 0 c63 0 65 1 65 25 0 24 -2 25 -65
25 -63 0 -65 1 -65 25 0 24 2 25 70 25 68 0 70 1 70 25 0 25 0 25 -94 25 l-94
0 -5 -32z"/>
<path d="M4000 555 c0 -22 4 -25 35 -25 l35 0 0 -105 0 -105 30 0 30 0 0 105
0 105 40 0 c36 0 40 3 40 25 l0 25 -105 0 -105 0 0 -25z"/>
<path d="M1518 553 c-39 -6 -86 -57 -94 -100 -21 -109 83 -194 180 -148 35 17
36 19 20 36 -12 14 -21 16 -41 8 -39 -15 -62 -11 -88 16 -60 59 4 164 81 135
27 -10 54 1 54 22 0 9 -63 39 -77 37 -4 -1 -20 -4 -35 -6z"/>
<path d="M1987 545 c-53 -18 -63 -29 -76 -81 -27 -107 43 -189 146 -169 76 14
118 97 91 180 -21 62 -93 94 -161 70z m77 -46 c50 -23 58 -112 13 -144 -41
-29 -90 -17 -113 27 -20 38 -10 82 23 108 29 23 42 24 77 9z"/>
<path d="M850 425 l0 -125 25 0 c24 0 24 2 27 88 l3 87 34 -47 c19 -27 39 -48
43 -48 5 0 23 21 41 46 l32 46 3 -86 c3 -84 3 -86 27 -86 l25 0 0 125 0 125
-28 0 c-22 0 -36 -10 -61 -45 -18 -25 -35 -45 -39 -45 -4 0 -20 20 -37 45 -25
37 -35 45 -62 45 l-33 0 0 -125z"/>
<path d="M1247 543 c-8 -13 -97 -232 -97 -238 0 -3 11 -5 24 -5 16 0 27 7 31
20 5 17 15 20 70 20 54 0 66 -3 75 -20 12 -22 66 -29 57 -7 -2 6 -26 63 -52
125 -45 105 -50 112 -76 112 -15 0 -30 -3 -32 -7z m53 -99 c11 -25 20 -48 20
-50 0 -2 -18 -4 -40 -4 -22 0 -40 3 -40 7 0 11 32 93 37 93 2 0 13 -21 23 -46z"/>
<path d="M1670 421 l0 -131 30 0 c29 0 30 2 30 45 0 38 3 45 20 45 10 0 36
-20 57 -45 28 -34 44 -45 66 -45 l29 0 -36 44 c-35 43 -36 45 -17 58 28 20 39
57 29 94 -12 48 -31 57 -124 62 l-84 5 0 -132z m158 67 c30 -30 -2 -68 -59
-68 -39 0 -39 0 -39 40 l0 40 43 0 c24 0 48 -5 55 -12z"/>
<path d="M367 520 c-9 -6 -24 -26 -31 -45 -19 -44 -47 -59 -91 -46 -29 8 -35
6 -40 -8 -6 -21 10 -113 26 -142 21 -39 82 -100 115 -114 164 -68 310 22 273
169 -25 102 -190 223 -252 186z"/>
</g>
</svg>
